<svg viewBox="0 0 1024 1024" version="1.1" xmlns="http://www.w3.org/2000/svg" xmlns:xlink="http://www.w3.org/1999/xlink" width="30" height="30"><defs></defs><path d="M296.3712 599.47008l79.16544-84.03456c14.60224-14.53056 9.74848-27.43808-12.92288-27.43808H307.65568v-8.13056c3.23072-114.73408 58.20416-203.66336 134.21056-255.38048 108.25216-75.94496 258.60608-80.78336 370.14016 6.45632C576.0256-40.58112 76.55936 135.61344 76.55936 487.99744H23.21408c-21.03296 0-25.88672 12.90752-11.35616 27.43808l76.02176 84.03456 79.19104 80.86528c14.53056 17.7664 38.79424 17.7664 53.33504 0l75.96544-80.86528z" fill="#d81e06"></path><path d="M1015.63392 508.99456l-75.95008-84.02944-79.232-80.86528c-14.55104-17.77664-38.76352-17.77664-53.30944 0l-76.00128 80.86528-79.17056 84.02944c-14.55616 14.52544-9.70752 25.79968 12.89728 25.79968h54.9632v9.79456c-3.22048 114.70848-58.18368 203.61728-134.13376 255.35488-108.30336 77.58336-258.60608 82.41152-370.13504-6.47168 235.99616 271.54432 735.44192 93.73184 735.44192-258.67776h53.33504c21.00736 0 25.84064-11.27424 11.29472-25.79968" fill="#1296db"></path></svg>