<svg viewBox="0 0 1024 1024" version="1.1" xmlns="http://www.w3.org/2000/svg" width="30" height="30"><path d="M948.3264 83.968H75.6736c-19.7888 0-35.7632 15.9744-35.7632 35.7376v772.5312c0 19.7888 15.9744 35.7632 35.7632 35.7632h872.6528c19.7888 0 35.7632-15.9744 35.7632-35.7632V119.7056c0-19.7632-15.9744-35.7632-35.7632-35.7632z m-85.0432 678.0672a9.0624 9.0624 0 0 1-5.8112 2.1248H166.4a8.96 8.96 0 0 1-6.8096-14.7712l190.336-225.7408a9.0112 9.0112 0 0 1 12.6208-1.1264c0.3328 0.3328 0.768 0.6656 1.1264 1.1264l111.104 131.8656 148.0704-209.5616a9.0112 9.0112 0 0 1 12.6208-1.1008c0.3328 0.3328 0.768 0.6656 1.1264 1.1008l227.9936 303.5648a9.1136 9.1136 0 0 1-1.3312 12.5184z" fill="#d4237a"></path><path d="M331.8272 273.5104a85.9136 85.9136 0 0 1 85.8368 85.8368 85.9136 85.9136 0 0 1-85.8368 85.8368 85.9136 85.9136 0 0 1-85.8368-85.8368 85.9136 85.9136 0 0 1 85.8368-85.8368z" fill="#f4ea2a"></path></svg>