<svg t="1727248809699" class="icon" viewBox="0 0 1024 1024" version="1.1" xmlns="http://www.w3.org/2000/svg" p-id="10878" width="200" height="200"><path d="M782.222222 128H241.777778c-31.288889 0-56.888889 25.6-56.888889 56.888889v42.666667c0 15.644444 12.8 28.444444 28.444444 28.444444s28.444444-12.8 28.444445-28.444444v-42.666667h241.777778v654.222222h-56.888889c-15.644444 0-28.444444 12.8-28.444445 28.444445s12.8 28.444444 28.444445 28.444444h184.888889c15.644444 0 28.444444-12.8 28.444444-28.444444s-12.8-28.444444-28.444444-28.444445h-71.111112V184.888889h241.777778v42.666667c0 15.644444 12.8 28.444444 28.444445 28.444444s28.444444-12.8 28.444444-28.444444v-42.666667c0-31.288889-25.6-56.888889-56.888889-56.888889z" p-id="10879" fill="#0b5983"></path></svg>