<svg viewBox="0 0 1024 1024" version="1.1" xmlns="http://www.w3.org/2000/svg" width="30" height="30" xmlns:xlink="http://www.w3.org/1999/xlink"><path d="M644.267 755.2h-345.6c-72.534 0-132.267-59.733-132.267-132.267 0-72.533 55.467-128 128-132.266h465.067c25.6 0 42.666-21.334 42.666-42.667 0-25.6-21.333-42.667-42.666-42.667H213.333l64-68.266L396.8 213.333l64 64-42.667 38.4h345.6C836.267 315.733 896 375.467 896 448c0 34.133-12.8 64-34.133 89.6-25.6 29.867-55.467 42.667-93.867 42.667H298.667c-25.6 0-42.667 21.333-42.667 42.666 0 25.6 21.333 42.667 42.667 42.667h550.4l-59.734 64-119.466 123.733-64-64 38.4-34.133zM896 622.933z" fill="#d81e06"></path></svg>