<svg viewBox="0 0 1024 1024" version="1.1" xmlns="http://www.w3.org/2000/svg" width="30" height="30"><path d="M512 0.774244c-274.731707 0-499.512195 224.780488-499.512195 499.512195s224.780488 499.512195 499.512195 499.512195 499.512195-224.780488 499.512195-499.512195-224.780488-499.512195-499.512195-499.512195z m0 111.016585c86.016 0 166.51239 30.520195 233.097366 77.674147L201.203512 733.40878c-47.203902-66.584976-77.724098-147.05639-77.724097-233.097365 0-213.666341 174.829268-388.49561 388.520585-388.49561z m0 776.99122c-86.016 0-166.51239-30.520195-233.097366-77.674147l543.893854-543.918829c47.203902 66.584976 77.724098 147.081366 77.724097 233.097366 0 213.691317-174.829268 388.520585-388.520585 388.520585z" fill="#D50000"></path></svg>