<svg viewBox="0 0 1024 1024" version="1.1" xmlns="http://www.w3.org/2000/svg" width="30" height="30"><path d="M892.3392 565.632c2.432-17.0496 4.864-34.1248 4.864-53.632 0-19.5072-2.432-36.5824-4.864-53.632l109.7216-78.0288c9.728-7.3216 14.6176-21.9392 7.3216-34.1248l-107.264-180.4288C894.7456 153.6 882.56 148.736 870.4 156.0576l-121.9072 56.064A437.0944 437.0944 0 0 0 655.872 158.464L643.6608 24.3712c-2.432-12.1856-12.1856-21.9392-24.3968-21.9392H409.6c-12.1856 0-24.3712 9.7536-24.3712 21.9392L372.992 158.464C338.8928 173.1072 307.2 190.208 280.3712 212.1216L158.464 156.0576c-12.1856-4.8896-26.8032 0-31.6928 9.728L21.9392 346.2144c-7.3216 12.1856-2.432 26.8032 7.3216 34.1248l109.7216 78.0288c-2.4576 17.0496-4.864 34.1248-4.864 53.632 0 19.5072 2.4064 36.5824 4.864 53.632L24.3712 643.6608c-9.728 7.3216-14.6176 21.9392-7.296 34.1248l104.832 180.4288c7.3216 12.1856 19.5072 17.0496 31.6928 9.728l121.9072-56.064a437.0944 437.0944 0 0 0 92.6464 53.6576l12.1856 134.0928c2.432 12.1856 12.1856 21.9392 24.3968 21.9392H614.4c12.1856 0 24.3712-9.7536 24.3712-21.9392l12.2112-134.0928c34.1248-14.6432 65.8176-31.7184 92.6464-53.6576l121.9072 56.064c12.1856 4.8896 26.8032 0 31.6928-9.728l104.832-180.4288c7.3216-12.1856 2.432-26.8032-7.3216-34.1248l-102.4-78.0288zM512 755.8144c-134.0928 0-243.8144-109.7216-243.8144-243.8144 0-134.0928 109.7216-243.8144 243.8144-243.8144 134.0928 0 243.8144 109.7216 243.8144 243.8144 0 134.0928-109.7216 243.8144-243.8144 243.8144z" fill="#607D8B"></path><path d="M512 219.4176C351.0784 219.4176 219.4176 351.0784 219.4176 512c0 160.9216 131.6608 292.5824 292.5824 292.5824 160.9216 0 292.5824-131.6608 292.5824-292.5824 0-160.9216-131.6608-292.5824-292.5824-292.5824z m0 414.464c-68.2752 0-121.9072-53.6064-121.9072-121.8816 0-68.2752 53.632-121.9072 121.9072-121.9072 68.2752 0 121.9072 53.632 121.9072 121.9072 0 68.2752-53.632 121.9072-121.9072 121.9072z" fill="#455A64"></path></svg>