<svg viewBox="0 0 1024 1024" version="1.1" xmlns="http://www.w3.org/2000/svg" width="30" height="30"><path d="M983.072 216.768l-294.304 296.096 294.304 294.336c12.32 12.288 12.32 32.224 0 44.544l-133.632 133.6c-12.256 12.32-32.192 12.32-44.512 0l-293.824-293.824-292.064 293.824c-12.288 12.32-32.224 12.32-44.544 0l-133.6-133.6c-12.288-12.32-12.288-32.256 0-44.544l292.064-293.824L40.928 221.344c-12.288-12.288-12.288-32.224 0-44.544l133.6-133.6c12.288-12.32 32.224-12.32 44.544 0l291.52 291.52 294.368-296.096c12.32-12.32 32.256-12.32 44.512 0l133.632 133.6C995.36 184.544 995.36 204.48 983.072 216.768z" fill="#d81e06"></path></svg>