<svg viewBox="0 0 1024 1024" version="1.1" xmlns="http://www.w3.org/2000/svg" xmlns:xlink="http://www.w3.org/1999/xlink" width="30" height="30"><path d="M893.439455 562.322945l107.958703 85.138164c2.413711 1.609141 4.388565 3.803423 5.997706 6.582848a45.641078 45.641078 0 0 1 3.657137 7.826275 70.290185 70.290185 0 0 1-0.658284 8.411416 29.7691 29.7691 0 0 1-2.998853 9.581701l-101.960997 177.444318a31.597669 31.597669 0 0 1-5.997706 6.582847 21.211398 21.211398 0 0 1-8.411417 4.24228 27.062818 27.062818 0 0 1-8.411416 1.170284l-8.411417-1.170284-127.195247-51.565641c-8.045703 4.827422-15.213693 9.581701-21.577112 14.409123-6.436562 4.754279-13.165695 9.142844-20.479971 13.165695-7.16799 4.022851-14.555408 8.045703-22.162254 11.995412-7.606846 4.022851-15.359978 7.606846-23.40568 10.751984l-19.163402 135.533521c0 2.413711-0.80457 4.973707-2.41371 7.826275a37.668518 37.668518 0 0 1-5.997706 7.753131 42.422797 42.422797 0 0 0-7.826275 3.657138 17.919974 17.919974 0 0 1-8.923416 2.340568h-204.068279a17.846832 17.846832 0 0 1-8.923416-2.413711 42.642225 42.642225 0 0 0-7.826275-3.583995 300.689856 300.689856 0 0 0-5.997705-7.753131 12.068554 12.068554 0 0 1-2.413711-7.826275l-19.163402-135.533521a316.488691 316.488691 0 0 1-23.990822-10.751984 144.091223 144.091223 0 0 1-21.650255-11.995412 169.398615 169.398615 0 0 1-20.99197-13.82398 174.664893 174.664893 0 0 0-20.99197-13.750838l-127.195247 51.565641a26.989676 26.989676 0 0 1-13.165696 0.585142 16.091406 16.091406 0 0 0-3.657137-0.585142 17.773689 17.773689 0 0 1-8.338274-4.827422 8.996559 8.996559 0 0 1-3.657138-2.92571 20.333685 20.333685 0 0 0-2.340568-3.071995L18.652133 679.863349a28.891387 28.891387 0 0 1-2.92571-8.996559 62.025054 62.025054 0 0 1-0.731427-8.996558 16.310834 16.310834 0 0 1 3.657137-8.411417 13.897123 13.897123 0 0 1 2.413711-3.583995l3.657138-3.583995 107.958703-85.138164a74.386179 74.386179 0 0 1-1.828569-11.410269 148.479788 148.479788 0 0 1-0.585142-13.750838 10.532556 10.532556 0 0 1-1.243427-4.827421V498.835036c0-4.022851 0.438857-8.411417 1.243427-13.165696 0-4.022851 0.146286-7.826275 0.585142-11.410269 0.365714-3.657138 1.023999-7.826275 1.828569-12.653696L24.649839 376.467211a21.357684 21.357684 0 0 1-5.997706-5.924563 26.331391 26.331391 0 0 1-3.657137-9.654844c0-2.340568 0.219428-5.119993 0.731427-8.338273a19.017116 19.017116 0 0 1 2.92571-8.411417L120.686273 166.693796l5.997706-5.997706a13.750837 13.750837 0 0 1 3.583995-2.41371l4.754279-2.413711a14.847979 14.847979 0 0 1 8.411416-2.413711c1.609141 0 2.998853 0.219428 4.24228 0.658285a37.449089 37.449089 0 0 1 4.169137 1.755426l127.26839 51.56564c7.16799-5.558849 13.897123-10.386271 20.333685-14.409122 6.363419-3.949709 13.604552-8.77713 21.577112-14.335979 7.241133-4.022851 14.628551-7.606846 22.235397-10.825128 7.606846-3.145138 15.359978-6.802276 23.40568-10.751984L385.828752 21.578575A14.628551 14.628551 0 0 1 388.242463 13.167158 47.323361 47.323361 0 0 1 394.240168 5.999169a18.06626 18.06626 0 0 1 7.826275-4.827422A33.060524 33.060524 0 0 1 411.063001 0.001463h203.995137a22.674253 22.674253 0 0 1 8.996559 1.828569 49.005644 49.005644 0 0 1 7.753132 4.169137c2.413711 1.609141 4.388565 4.022851 5.997706 7.167989a67.437618 67.437618 0 0 1 3.657137 8.411417l19.163401 135.533521c7.16799 3.949709 14.628551 7.606846 22.162254 10.751984 7.606846 3.218281 15.067407 6.802276 22.235397 10.825128 7.16799 5.558849 14.409122 10.386271 21.577112 14.335979 7.241133 4.022851 13.970266 8.77713 20.479971 14.409122l127.122104-51.56564a20.333685 20.333685 0 0 1 8.996559-2.413711 20.479971 20.479971 0 0 1 8.996558 2.413711 22.674253 22.674253 0 0 1 7.241133 4.242279c2.340568 1.974854 4.388565 4.169137 5.997706 6.582848l101.960997 177.444318a26.916533 26.916533 0 0 1 3.657137 8.411417v9.508557a35.474235 35.474235 0 0 1-3.657137 9.069702 10.971413 10.971413 0 0 1-5.997706 5.412564l-107.958703 85.138164c0.731428 4.754279 1.389712 9.142844 1.755426 13.165695 0.438857 4.022851 0.585142 7.606846 0.585142 10.751985 0.80457 5.631992 1.243427 10.020557 1.243427 13.165695v25.23425c0 4.022851-0.438857 8.045703-1.243427 11.995411 0 4.022851-0.146286 8.411417-0.585142 13.165696-0.365714 4.827422-1.023999 8.77713-1.755426 11.995411v1.243427zM427.081264 715.410727c26.623962 12.434268 55.295921 18.505116 85.942735 18.505116 30.646813 0 59.24563-6.143991 86.015877-18.505116 26.623962-12.287982 50.395357-27.794246 71.094755-46.591934A225.572249 225.572249 0 0 0 716.799707 426.13114a236.76309 236.76309 0 0 0-46.665076-70.94847 248.97793 248.97793 0 0 0-71.094755-47.396504 209.700272 209.700272 0 0 0-86.015877-17.700546c-30.646813 0-59.24563 5.85142-85.942735 17.700546-26.697105 11.849126-50.468499 27.647961-71.167898 47.396504-19.748543 20.699399-35.32795 44.10508-46.738219 70.217042a212.84541 212.84541 0 0 0-17.042261 85.869592c0 31.08567 5.705135 60.196485 17.042261 87.259304 11.410269 27.209104 26.916533 50.614785 46.738219 70.290185 20.772542 18.797687 44.470794 34.303951 71.167898 46.591934z" fill="#798BA7"></path><path d="M455.021796 646.071397C472.722342 654.263385 491.739458 658.286237 512 658.286237s39.277658-4.022851 56.978204-12.21484a186.514019 186.514019 0 0 0 47.103933-30.719956 148.040931 148.040931 0 0 0 30.939384-159.9632 156.013491 156.013491 0 0 0-30.939384-46.811362 164.936907 164.936907 0 0 0-47.103933-31.158812A139.483229 139.483229 0 0 0 512 365.715226c-20.260542 0-39.277658 3.876566-56.978204 11.702841a164.936907 164.936907 0 0 0-47.103933 31.231955 157.256918 157.256918 0 0 0-30.939384 46.299362A139.702658 139.702658 0 0 0 365.714495 511.488732a146.651219 146.651219 0 0 0 42.203368 103.862709c13.750837 12.434268 29.476529 22.674253 47.103933 30.719956z" fill="#798BA7" opacity=".2"></path></svg>