<svg viewBox="0 0 1024 1024" version="1.1" xmlns="http://www.w3.org/2000/svg" width="30" height="30"><path d="M870.208 133.184h-37.376v181.568c0 38.592-31.296 69.952-69.952 69.952-38.592 0-69.888-31.36-69.888-69.952V133.184h-360.96v181.12c0 38.656-31.36 70.016-70.016 70.016-38.592 0-69.888-31.36-69.888-70.016v-181.12h-38.4c-49.6 0-89.728 40.192-89.728 89.728v196.48h896v-196.48c0-49.536-40.128-89.728-89.792-89.728z" fill="#d81e06"></path><path d="M315.328 295.168c0 29.632-24.064 53.568-53.568 53.568-29.632 0-53.568-23.936-53.568-53.568v-176.64c0-29.632 24-53.568 53.568-53.568 29.504 0 53.568 23.936 53.568 53.568v176.64zM817.92 295.168c0 29.632-23.936 53.568-53.632 53.568-29.632 0-53.568-23.936-53.568-53.568v-176.64c0-29.632 23.936-53.568 53.568-53.568 29.696 0 53.632 23.936 53.632 53.568v176.64zM907.648 456.512V815.424c0 49.536-40.128 89.664-89.664 89.664H205.312c-49.536 0-89.664-40.128-89.664-89.664V456.512H64v412.8c0 49.536 40.128 89.792 89.792 89.792h716.352c49.664 0 89.792-40.256 89.792-89.792V456.512h-52.288z" fill="#878784"></path><path d="M537.152 716.672h70.464c6.976 32.256 24.896 41.536 42.368 41.536 25.92 0 41.664-16.768 41.664-46.272 0-16.64-6.208-40.064-41.664-40.96H627.52v-44.16h10.176c35.456-0.896 43.968-15.424 43.968-42.24 0-17.344-12.864-29.952-33.664-30.528-27.264-0.704-31.424 11.84-38.272 28.352l-65.984 0.128c15.296-50.752 50.752-76.544 106.304-77.44 67.328 1.792 102.208 28.992 104.64 81.536 0 25.792-14.848 45.312-44.288 58.176 37.696 12.928 56.64 36.032 56.64 69.12-2.368 55.36-41.344 84.416-116.928 87.168-63.872 0.064-102.336-30.912-112.96-84.416zM488.512 734.656v62.4H261.76V756.8c24.704-38.72 49.344-67.776 95.488-97.28 42.432-27.712 57.216-48.832 57.216-69.12 0-4.48 0.192-27.712-33.984-27.712-23.808 0.896-41.28 11.648-41.28 36.16l-72.192 0.448c4.16-69.568 60.8-94.272 118.784-94.272 66.048 2.752 101.504 30.848 106.24 84.288 2.368 36.032-17.92 70.464-73.472 104.576-30.72 18.368-33.472 20.416-52.288 40.704h122.24z" fill="#d81e06"></path></svg>