<svg viewBox="0 0 1024 1024" version="1.1" xmlns="http://www.w3.org/2000/svg" xmlns:xlink="http://www.w3.org/1999/xlink" width="30" height="30"><path d="M469.85216 270.82752a198.98368 198.98368 0 1 0 199.02464 198.98368 199.22944 199.22944 0 0 0-199.02464-198.98368z" fill="#D55452"></path><path d="M512 0a512 512 0 1 0 512 512A512 512 0 0 0 512 0z m294.42048 806.42048a39.97696 39.97696 0 0 1-56.56576 0l-123.904-123.904a264.31488 264.31488 0 1 1 56.56576-56.56576l123.904 123.904a39.97696 39.97696 0 0 1 0 56.56576z" fill="#D55452"></path></svg>