<svg viewBox="0 0 1024 1024" version="1.1" xmlns="http://www.w3.org/2000/svg" width="30" height="30"><path d="M847.585 111.79l-665.283 0c-80.241 0-145.538 65.276-145.538 145.517l0 509.365c0 80.241 65.299 145.538 145.538 145.538l665.283 0c80.262 0 145.538-65.299 145.538-145.538l0-509.365c0-80.241-65.276-145.517-145.538-145.517zM905.678 275.84l-389.83 252.292c-3.438 2.248-7.36 3.35-11.305 3.35-4.1 0-8.221-1.211-11.724-3.636l-369.026-252.292c-9.476-6.479-11.9-19.416-5.443-28.892 6.479-9.454 19.416-11.878 28.913-5.443l357.633 244.512 378.173-244.776c9.63-6.258 22.523-3.482 28.782 6.149 6.215 9.63 3.459 22.5-6.171 28.738z" fill="#b59030"></path></svg>