<svg viewBox="0 0 1026 1024" version="1.1" xmlns="http://www.w3.org/2000/svg" xmlns:xlink="http://www.w3.org/1999/xlink" width="30.05859375" height="30"><path d="M725.737962 223.508488l-2.530785 2.530785h-143.520434v213.499895a8.712907 8.712907 0 0 1-8.712907 8.710661h-116.146638a8.712907 8.712907 0 0 1-8.712906-8.712906v-213.499896h-143.51819l-2.53303-2.530785a10.666574 10.666574 0 0 1 0-15.083658l205.296739-205.292248a10.666574 10.666574 0 0 1 15.083658 0l205.294493 205.292248a10.666574 10.666574 0 0 1 0 15.085904z m0 576.983047l-2.530785-2.530785h-143.520434v-213.499896a8.712907 8.712907 0 0 0-8.712907-8.710661h-116.146638a8.712907 8.712907 0 0 0-8.712906 8.712907v213.499895h-143.51819l-2.53303 2.530785a10.666574 10.666574 0 0 0 0 15.083658l205.296739 205.292248a10.666574 10.666574 0 0 0 15.083658 0l205.294493-205.292248a10.666574 10.666574 0 0 0 0-15.085903zM224.408994 299.162566l2.530785 2.530785v143.52268h213.499895a8.712907 8.712907 0 0 1 8.710661 8.710661v116.146638a8.712907 8.712907 0 0 1-8.712906 8.712907H226.939779v143.518189l-2.533031 2.53303a10.666574 10.666574 0 0 1-15.081413 0L4.028597 519.540718a10.666574 10.666574 0 0 1 0-15.083659l205.296738-205.292247a10.666574 10.666574 0 0 1 15.083659 0z m574.452262 2.530785v143.52268h-213.499896a8.712907 8.712907 0 0 0-8.710661 8.710661v116.146638a8.712907 8.712907 0 0 0 8.712906 8.712907h213.499896v143.518189l2.530785 2.53303a10.666574 10.666574 0 0 0 15.083658 0l205.292248-205.296738a10.666574 10.666574 0 0 0 0-15.083659l-205.292248-205.292247a10.666574 10.666574 0 0 0-15.085903 0l-2.530785 2.528539z" fill="#5b809f"></path></svg>