<svg viewBox="0 0 1024 1024" version="1.1" xmlns="http://www.w3.org/2000/svg" width="30" height="30"><path d="M938.666667 85.333333l-354.688 56.021334 100.010666 99.968-90.666666 92.032c-25.6 25.6-51.456 45.824-81.322667 58.666666 51.2 17.066667 102.656 39.466667 145.322667 69.290667 12.8-8.533333 24.832-22.101333 33.322666-30.634667L782.72 340.010667l99.968 99.968L938.666667 85.333333z m0 853.333334l-56.021334-354.688-87.978666 88.021333L725.333333 603.989333l-21.333333-20.010666C603.562667 483.626667 469.802667 426.666667 327.978667 426.666667L85.333333 426.666667l0 170.666666 242.68800001 0c97.109333 0 185.728 36.437333 255.99999999 106.666667l89.301334 89.344-89.344 89.301333L938.666667 938.666667z" fill="#0c7b27"></path></svg>