<svg viewBox="0 0 1024 1024" version="1.1" xmlns="http://www.w3.org/2000/svg" xmlns:xlink="http://www.w3.org/1999/xlink" width="30" height="30"><path d="M928 544c-17.673 0-32-14.327-32-32 0-212.077-171.923-384-384-384-17.673 0-32-14.327-32-32s14.327-32 32-32c247.423 0 448 200.576 448 448 0 17.673-14.327 32-32 32z m-192 0c-17.673 0-32-14.327-32-32 0-106.039-85.961-192-192-192-17.673 0-32-14.327-32-32 0-17.673 14.327-32 32-32 141.385 0 256 114.615 256 256 0 17.673-14.327 32-32 32z m-88.784 175.522a315.728 315.728 0 0 0 3.439-3.633c0.06-0.057 0.117-0.114 0.174-0.172 18.348-19.517 52.528-56.062 69.331-75.469 0-0.019 0.029-0.033 0.029-0.048 23.217-25.868 57.372-20.356 75.542-10.443 35.903 19.617 109.872 60.172 134.399 74.73 16.857 9.708 29.866 31.495 29.866 46.43v59.733c0 16.074-5.485 37.756-20.242 58.074-28.147 37.913-85.545 91.262-171.267 91.262-134.837 0-286.592-64.983-453.979-223.694-131.396-124.559-210.815-293.678-238.93-374.021C67.381 339.989 64 309.395 64 287.985v-50.282c0-69.327 53.344-126.815 87.673-154.977 14.116-12.207 31.966-18.74 46.726-18.74h45.499c23.918 0.439 39.199 16.317 45.033 29.821 14.525 33.731 45.822 112.538 62.562 158.362 6.243 16.932 11.172 39.74 11.172 65.508 0 23.742-45.733 72.479-61.398 87.471-15.69 14.992-10.849 69.985 132.448 214.929 95.023 96.135 154 112.567 182.991 112.743 16.391-0.042 24.236-6.693 30.51-13.298z" fill="#138aa4"></path></svg>